<svg width="60" height="60" viewBox="0 0 60 60" fill="none" xmlns="http://www.w3.org/2000/svg">
<path d="M30 5C23.3696 5 17.0107 7.63392 12.3223 12.3223C7.63392 17.0107 5 23.3696 5 30C5 36.6304 7.63392 42.9893 12.3223 47.6777C17.0107 52.3661 23.3696 55 30 55C36.6304 55 42.9893 52.3661 47.6777 47.6777C52.3661 42.9893 55 36.6304 55 30C55 23.3696 52.3661 17.0107 47.6777 12.3223C42.9893 7.63392 36.6304 5 30 5Z" fill="#530379"/>
<path d="M17.5 23.75H22.5V42.5H17.5V23.75ZM19.985 21.25H19.9575C18.465 21.25 17.5 20.1375 17.5 18.7487C17.5 17.33 18.495 16.25 20.0137 16.25C21.535 16.25 22.4713 17.33 22.5 18.7487C22.5 20.1375 21.535 21.25 19.985 21.25ZM43.75 30.625C43.75 26.8275 40.6725 23.75 36.875 23.75C34.5475 23.75 32.4937 24.91 31.25 26.68V23.75H26.25V42.5H31.25V32.5C31.25 30.4288 32.9288 28.75 35 28.75C37.0712 28.75 38.75 30.4288 38.75 32.5V42.5H43.75C43.75 42.5 43.75 31.1512 43.75 30.625Z" fill="#D9BCE7"/>
</svg>
