<svg width="40" height="40" viewBox="0 0 40 40" fill="none" xmlns="http://www.w3.org/2000/svg">
<path d="M20 19.5833C20.8055 19.5833 21.493 19.2986 22.0625 18.7292C22.6319 18.1597 22.9166 17.4722 22.9166 16.6667C22.9166 15.8611 22.6319 15.1736 22.0625 14.6042C21.493 14.0347 20.8055 13.75 20 13.75C19.1944 13.75 18.5069 14.0347 17.9375 14.6042C17.368 15.1736 17.0833 15.8611 17.0833 16.6667C17.0833 17.4722 17.368 18.1597 17.9375 18.7292C18.5069 19.2986 19.1944 19.5833 20 19.5833ZM20 33.375C23.6944 30.0139 26.4236 26.9653 28.1875 24.2292C29.9513 21.4931 30.8333 19.0833 30.8333 17C30.8333 13.7222 29.7847 11.0417 27.6875 8.95834C25.5902 6.87501 23.0277 5.83334 20 5.83334C16.9722 5.83334 14.4097 6.87501 12.3125 8.95834C10.2152 11.0417 9.16663 13.7222 9.16663 17C9.16663 19.0833 10.0694 21.4931 11.875 24.2292C13.6805 26.9653 16.3888 30.0139 20 33.375ZM20 36.6667C15.5277 32.8611 12.1875 29.3264 9.97913 26.0625C7.77079 22.7986 6.66663 19.7778 6.66663 17C6.66663 12.8333 8.0069 9.5139 10.6875 7.04168C13.368 4.56945 16.4722 3.33334 20 3.33334C23.5277 3.33334 26.6319 4.56945 29.3125 7.04168C31.993 9.5139 33.3333 12.8333 33.3333 17C33.3333 19.7778 32.2291 22.7986 30.0208 26.0625C27.8125 29.3264 24.4722 32.8611 20 36.6667Z" fill="#D9BCE7"/>
</svg>
