<svg width="85" height="48" viewBox="0 0 85 48" fill="none" xmlns="http://www.w3.org/2000/svg">
<g filter="url(#filter0_d_34_61)">
<path d="M0.896001 0.455997H34.112V2.824H3.264V21.512H28.224V23.88H3.264V45H0.896001V0.455997ZM81.487 45H47.247V0.455997H64.591C68.303 0.455997 71.3323 1.11733 73.679 2.44C75.983 3.72 77.775 5.46933 79.055 7.688C80.335 9.90667 80.975 12.36 80.975 15.048C80.975 18.376 79.951 21.3627 77.903 24.008C75.855 26.6107 73.2737 28.3387 70.159 29.192L81.487 45ZM51.279 2.824L68.687 27.144C71.5457 26.5467 73.9137 25.1173 75.791 22.856C77.6683 20.5947 78.607 17.992 78.607 15.048C78.607 12.7013 78.031 10.568 76.879 8.648C75.727 6.728 74.1057 5.256 72.015 4.232C70.1377 3.29333 67.6843 2.824 64.655 2.824H51.279ZM49.615 4.36V27.336H66.063L49.615 4.36ZM49.615 42.632H77.007L67.663 29.64L65.679 29.704H49.615V42.632Z" fill="white"/>
</g>
<defs>
<filter id="filter0_d_34_61" x="0.895996" y="0.455994" width="83.5909" height="47.544" filterUnits="userSpaceOnUse" color-interpolation-filters="sRGB">
<feFlood flood-opacity="0" result="BackgroundImageFix"/>
<feColorMatrix in="SourceAlpha" type="matrix" values="0 0 0 0 0 0 0 0 0 0 0 0 0 0 0 0 0 0 127 0" result="hardAlpha"/>
<feOffset dx="2" dy="2"/>
<feGaussianBlur stdDeviation="0.5"/>
<feComposite in2="hardAlpha" operator="out"/>
<feColorMatrix type="matrix" values="0 0 0 0 0.325042 0 0 0 0 0.0100695 0 0 0 0 0.473264 0 0 0 1 0"/>
<feBlend mode="normal" in2="BackgroundImageFix" result="effect1_dropShadow_34_61"/>
<feBlend mode="normal" in="SourceGraphic" in2="effect1_dropShadow_34_61" result="shape"/>
</filter>
</defs>
</svg>
