<svg width="85" height="48" viewBox="0 0 85 48" fill="none" xmlns="http://www.w3.org/2000/svg">
<g filter="url(#filter0_d_402_84)">
<path d="M0.895996 0.455994H34.112V2.82399H3.264V21.512H28.224V23.88H3.264V45H0.895996V0.455994Z" fill="white"/>
<path d="M81.487 45H47.247V0.455994H64.591C68.303 0.455994 71.3323 1.11733 73.679 2.43999C75.983 3.71999 77.775 5.46933 79.055 7.688C80.335 9.90666 80.975 12.36 80.975 15.048C80.975 18.376 79.951 21.3627 77.903 24.008C75.855 26.6107 73.2737 28.3387 70.159 29.192L81.487 45ZM51.279 2.82399L68.687 27.144C71.5457 26.5467 73.9137 25.1173 75.791 22.856C77.6683 20.5947 78.607 17.992 78.607 15.048C78.607 12.7013 78.031 10.568 76.879 8.64799C75.727 6.72799 74.1057 5.25599 72.015 4.23199C70.1377 3.29333 67.6843 2.82399 64.655 2.82399H51.279ZM49.615 4.35999V27.336H66.063L49.615 4.35999ZM49.615 42.632H77.007L67.663 29.64L65.679 29.704H49.615V42.632Z" fill="white"/>
</g>
<defs>
<filter id="filter0_d_402_84" x="0.895996" y="0.455994" width="83.5911" height="47.544" filterUnits="userSpaceOnUse" color-interpolation-filters="sRGB">
<feFlood flood-opacity="0" result="BackgroundImageFix"/>
<feColorMatrix in="SourceAlpha" type="matrix" values="0 0 0 0 0 0 0 0 0 0 0 0 0 0 0 0 0 0 127 0" result="hardAlpha"/>
<feOffset dx="2" dy="2"/>
<feGaussianBlur stdDeviation="0.5"/>
<feComposite in2="hardAlpha" operator="out"/>
<feColorMatrix type="matrix" values="0 0 0 0 0.325042 0 0 0 0 0.0100695 0 0 0 0 0.473264 0 0 0 1 0"/>
<feBlend mode="normal" in2="BackgroundImageFix" result="effect1_dropShadow_402_84"/>
<feBlend mode="normal" in="SourceGraphic" in2="effect1_dropShadow_402_84" result="shape"/>
</filter>
</defs>
</svg>
